<?xml version="1.0" encoding="utf-8"?>
<!-- Generator: Adobe Illustrator 25.3.0, SVG Export Plug-In . SVG Version: 6.00 Build 0)  -->
<svg version="1.1" id="Layer_1" xmlns="http://www.w3.org/2000/svg" xmlns:xlink="http://www.w3.org/1999/xlink" x="0px" y="0px"
	 viewBox="0 0 455 245.8" style="enable-background:new 0 0 455 245.8;" xml:space="preserve">
<g>
	<g>
		<path d="M433.6,42.9H21.4C9.6,42.9,0,33.3,0,21.4S9.6,0,21.4,0h412.1C445.4,0,455,9.6,455,21.4S445.4,42.9,433.6,42.9z"/>
	</g>
	<g>
		<path d="M433.6,144.3H21.4C9.6,144.3,0,134.7,0,122.9s9.6-21.4,21.4-21.4h412.1c11.8,0,21.4,9.6,21.4,21.4
			S445.4,144.3,433.6,144.3z"/>
	</g>
	<g>
		<path d="M433.6,245.8H21.4C9.6,245.8,0,236.2,0,224.4c0-11.8,9.6-21.4,21.4-21.4h412.1c11.8,0,21.4,9.6,21.4,21.4
			C455,236.2,445.4,245.8,433.6,245.8z"/>
	</g>
</g>
</svg>
